<svg id="svg" version="1.1" xmlns="http://www.w3.org/2000/svg" xmlns:xlink="http://www.w3.org/1999/xlink" width="400" height="289.438202247191" viewBox="0, 0, 400,289.438202247191"><g id="svgg"><path id="path0" d="M168.315 143.708 L 168.315 279.326 279.663 279.326 L 391.011 279.326 391.011 225.506 L 391.011 171.685 379.213 171.685 L 367.416 171.685 367.416 213.483 L 367.416 255.281 279.663 255.281 L 191.910 255.281 191.910 143.708 L 191.910 32.135 279.663 32.135 L 367.416 32.135 367.416 76.067 L 367.416 120.000 379.213 120.000 L 391.011 120.000 391.011 64.045 L 391.011 8.090 279.663 8.090 L 168.315 8.090 168.315 143.708 M174.157 11.011 C 174.157 11.261,174.007 11.461,173.820 11.461 C 173.633 11.461,173.483 11.261,173.483 11.011 C 173.483 10.762,173.633 10.562,173.820 10.562 C 174.007 10.562,174.157 10.762,174.157 11.011 M227.797 118.515 C 227.705 118.749,227.683 118.994,227.748 119.058 C 227.952 119.263,228.133 118.927,228.047 118.501 C 227.968 118.110,227.956 118.110,227.797 118.515 M244.842 195.973 C 245.952 197.119,246.517 197.456,246.517 196.974 C 246.517 196.779,246.322 196.629,246.067 196.629 C 245.768 196.629,245.618 196.479,245.618 196.180 C 245.618 195.880,245.468 195.730,245.169 195.730 C 244.919 195.730,244.719 195.581,244.719 195.393 C 244.719 195.208,244.547 195.056,244.336 195.056 C 244.059 195.056,244.197 195.307,244.842 195.973 M248.764 199.408 C 248.764 199.530,250.449 200.674,250.630 200.674 C 250.716 200.674,250.787 200.573,250.787 200.449 C 250.787 200.326,250.584 200.225,250.337 200.225 C 250.037 200.225,249.888 200.075,249.888 199.775 C 249.888 199.446,249.738 199.326,249.326 199.326 C 249.017 199.326,248.764 199.363,248.764 199.408 M252.360 201.902 C 252.360 201.960,252.562 202.115,252.809 202.247 C 253.168 202.439,253.258 202.418,253.258 202.143 C 253.258 201.948,253.063 201.798,252.809 201.798 C 252.562 201.798,252.360 201.845,252.360 201.902 M328.764 202.282 C 328.764 202.752,328.777 202.754,329.213 202.360 C 329.461 202.136,329.663 201.918,329.663 201.875 C 329.663 201.833,329.461 201.798,329.213 201.798 C 328.903 201.798,328.764 201.948,328.764 202.282 M326.292 203.960 C 326.292 204.272,326.349 204.281,326.685 204.024 C 326.902 203.858,327.121 203.694,327.172 203.659 C 327.224 203.624,327.047 203.596,326.779 203.596 C 326.480 203.596,326.292 203.736,326.292 203.960 M226.292 210.225 C 226.292 210.410,226.456 210.562,226.657 210.562 C 226.955 210.562,226.971 210.501,226.742 210.225 C 226.588 210.039,226.424 209.888,226.377 209.888 C 226.330 209.888,226.292 210.039,226.292 210.225 M227.191 211.124 C 227.191 211.309,227.355 211.461,227.556 211.461 C 227.854 211.461,227.870 211.400,227.640 211.124 C 227.487 210.938,227.323 210.787,227.276 210.787 C 227.229 210.787,227.191 210.938,227.191 211.124 M228.090 211.798 C 228.090 211.983,228.242 212.135,228.427 212.135 C 228.614 212.135,228.764 212.335,228.764 212.584 C 228.764 212.897,228.914 213.034,229.258 213.034 C 229.715 213.034,229.695 212.976,228.989 212.247 C 228.122 211.353,228.090 211.337,228.090 211.798 M238.202 220.562 C 238.202 220.747,238.366 220.899,238.567 220.899 C 238.865 220.899,238.881 220.838,238.652 220.562 C 238.498 220.376,238.334 220.225,238.287 220.225 C 238.240 220.225,238.202 220.376,238.202 220.562 " stroke="none" fill="#eb1c24" fill-rule="evenodd"></path><path id="path1" d="M0.000 144.719 L 0.000 289.438 200.000 289.438 L 400.000 289.438 400.000 144.719 L 400.000 0.000 200.000 0.000 L 0.000 0.000 0.000 144.719 M110.337 20.112 L 110.337 32.135 71.236 32.135 L 32.135 32.135 32.135 143.708 L 32.135 255.281 91.461 255.281 L 150.787 255.281 150.787 267.303 L 150.787 279.326 79.326 279.326 L 7.865 279.326 7.865 143.708 L 7.865 8.090 59.101 8.090 L 110.337 8.090 110.337 20.112 M391.011 64.045 L 391.011 120.000 379.213 120.000 L 367.416 120.000 367.416 76.067 L 367.416 32.135 279.663 32.135 L 191.910 32.135 191.910 143.708 L 191.910 255.281 279.663 255.281 L 367.416 255.281 367.416 213.483 L 367.416 171.685 379.213 171.685 L 391.011 171.685 391.011 225.506 L 391.011 279.326 279.663 279.326 L 168.315 279.326 168.315 143.708 L 168.315 8.090 279.663 8.090 L 391.011 8.090 391.011 64.045 M149.870 119.157 C 149.853 185.694,149.802 191.849,149.247 194.382 C 148.607 197.303,148.317 198.441,147.888 199.712 C 147.628 200.481,147.416 201.373,147.416 201.696 C 147.416 202.450,146.357 205.145,145.831 205.730 C 145.609 205.978,144.871 207.292,144.191 208.652 C 143.511 210.011,142.702 211.389,142.393 211.714 C 142.084 212.038,141.550 212.847,141.205 213.511 C 140.861 214.176,140.259 215.174,139.867 215.730 C 139.475 216.287,138.947 217.155,138.692 217.661 C 138.438 218.167,137.773 219.030,137.215 219.580 C 136.657 220.130,135.932 220.981,135.602 221.470 C 133.384 224.767,130.842 226.472,120.225 231.784 C 117.815 232.990,115.574 234.118,115.246 234.292 C 114.918 234.465,114.520 234.607,114.362 234.607 C 114.204 234.607,113.652 234.811,113.136 235.061 C 112.619 235.311,111.377 235.803,110.374 236.154 C 109.372 236.504,108.603 236.842,108.665 236.904 C 108.727 236.967,108.193 237.126,107.479 237.258 C 101.305 238.403,81.551 238.137,79.136 236.878 C 78.931 236.771,77.753 236.462,76.517 236.191 C 73.983 235.635,71.779 234.975,70.449 234.375 C 67.391 232.993,62.236 230.364,61.261 229.689 C 60.629 229.251,59.556 228.506,58.876 228.032 C 58.197 227.558,56.818 226.629,55.813 225.967 C 54.807 225.304,53.948 224.671,53.902 224.558 C 53.857 224.446,53.112 223.869,52.247 223.276 C 49.241 221.217,41.188 212.707,41.389 211.802 C 41.428 211.625,45.303 207.737,50.000 203.161 L 58.539 194.841 61.987 198.263 C 63.883 200.146,65.840 202.225,66.335 202.886 C 79.719 220.725,115.023 217.088,122.611 197.087 C 122.914 196.288,123.239 195.580,123.334 195.514 C 123.668 195.280,124.221 193.800,124.681 191.910 C 124.937 190.860,125.379 189.140,125.663 188.090 L 126.180 186.180 126.238 117.360 L 126.296 48.539 138.092 48.539 L 149.888 48.539 149.870 119.157 M306.966 48.933 C 309.235 49.120,309.999 49.293,313.708 50.457 C 314.635 50.747,315.747 51.053,316.180 51.136 C 317.221 51.336,320.170 52.321,320.984 52.741 C 321.340 52.925,322.112 53.218,322.699 53.392 C 326.668 54.571,340.203 62.006,344.649 65.450 C 349.099 68.897,355.955 75.405,355.955 76.182 C 355.955 76.770,350.165 83.068,342.065 91.292 C 339.426 93.971,340.176 94.241,332.400 87.809 C 328.777 84.812,325.567 82.228,325.266 82.066 C 324.965 81.905,324.719 81.684,324.719 81.575 C 324.719 81.304,320.743 79.422,318.539 78.649 C 317.551 78.302,316.118 77.759,315.356 77.442 C 314.594 77.125,313.194 76.705,312.246 76.509 C 311.297 76.314,310.202 76.008,309.811 75.830 C 309.421 75.652,308.191 75.351,307.079 75.160 C 305.966 74.970,304.399 74.693,303.596 74.545 C 302.594 74.360,298.923 74.278,291.910 74.283 L 281.685 74.290 276.180 75.554 C 268.506 77.316,263.029 79.623,256.276 83.939 C 253.813 85.514,251.516 86.922,251.172 87.069 C 250.583 87.321,243.371 94.292,243.371 94.610 C 243.371 94.742,240.479 98.146,236.883 102.247 C 235.502 103.822,233.258 107.577,233.258 108.313 C 233.258 108.561,233.166 108.764,233.053 108.764 C 232.763 108.764,228.090 117.876,228.090 118.442 C 228.090 118.699,227.941 119.057,227.759 119.239 C 227.577 119.421,227.362 120.071,227.281 120.684 C 227.200 121.296,227.057 121.798,226.964 121.798 C 226.871 121.798,226.677 122.278,226.532 122.865 C 226.388 123.452,226.072 124.467,225.831 125.121 C 225.590 125.774,225.393 126.659,225.393 127.087 C 225.393 127.515,225.317 127.865,225.225 127.865 C 225.132 127.865,225.035 128.143,225.009 128.483 C 224.901 129.880,224.503 133.473,224.293 134.944 C 224.169 135.809,224.063 137.142,224.056 137.907 C 224.050 138.671,223.949 139.549,223.832 139.858 C 223.320 141.203,224.345 154.554,225.170 157.303 C 225.300 157.736,225.507 158.798,225.631 159.663 C 226.130 163.173,227.429 168.059,227.921 168.277 C 228.014 168.318,228.090 168.725,228.090 169.180 C 228.090 169.688,228.302 170.321,228.639 170.816 C 228.941 171.261,229.401 172.256,229.661 173.027 C 229.921 173.799,230.533 175.215,231.022 176.174 C 231.510 177.133,231.910 178.083,231.910 178.284 C 231.910 178.486,232.003 178.652,232.117 178.652 C 232.230 178.652,232.528 178.984,232.779 179.390 C 233.030 179.796,233.481 180.414,233.781 180.763 C 234.082 181.113,234.711 182.121,235.179 183.003 C 235.647 183.885,236.154 184.708,236.304 184.831 C 236.561 185.042,236.954 185.589,239.168 188.810 C 239.652 189.515,240.637 190.670,241.357 191.376 C 242.078 192.082,242.848 192.997,243.070 193.409 C 243.292 193.820,243.602 194.157,243.759 194.157 C 243.916 194.157,244.045 194.360,244.045 194.607 C 244.045 194.856,244.195 195.056,244.382 195.056 C 244.567 195.056,244.719 195.208,244.719 195.393 C 244.719 195.581,244.919 195.730,245.169 195.730 C 245.468 195.730,245.618 195.880,245.618 196.180 C 245.618 196.470,245.768 196.629,246.041 196.629 C 246.275 196.629,246.517 196.830,246.582 197.079 C 246.647 197.326,246.861 197.528,247.058 197.528 C 247.255 197.528,247.416 197.610,247.416 197.709 C 247.416 198.237,248.649 199.326,249.246 199.326 C 249.738 199.326,249.888 199.431,249.888 199.775 C 249.888 200.075,250.037 200.225,250.337 200.225 C 250.584 200.225,250.787 200.365,250.787 200.536 C 250.787 200.934,251.716 201.546,252.585 201.719 C 253.046 201.811,253.258 201.987,253.258 202.275 C 253.258 202.507,253.410 202.697,253.596 202.697 C 253.781 202.697,254.135 202.899,254.382 203.146 C 254.629 203.393,254.983 203.596,255.169 203.596 C 255.354 203.596,255.708 203.798,255.955 204.045 C 256.202 204.292,256.657 204.494,256.966 204.494 C 257.279 204.494,257.528 204.625,257.528 204.788 C 257.528 205.080,260.668 206.966,261.155 206.966 C 261.296 206.966,261.527 207.125,261.669 207.318 C 261.810 207.512,262.377 207.729,262.929 207.801 C 263.481 207.874,263.983 207.998,264.045 208.078 C 264.107 208.159,265.320 208.563,266.742 208.977 C 268.163 209.391,270.084 209.965,271.011 210.252 C 271.938 210.539,273.253 210.925,273.933 211.110 C 274.612 211.296,276.331 211.821,277.753 212.277 L 280.337 213.107 289.663 213.206 C 299.131 213.305,301.606 213.170,303.680 212.441 C 304.159 212.273,305.306 212.135,306.230 212.135 C 307.266 212.135,308.136 212.011,308.505 211.811 C 309.616 211.207,311.698 210.562,312.537 210.561 C 312.995 210.560,313.681 210.371,314.060 210.140 C 314.440 209.908,314.984 209.645,315.271 209.554 C 315.557 209.463,317.246 208.692,319.025 207.840 C 320.803 206.989,322.508 206.292,322.813 206.292 C 323.124 206.292,323.490 206.095,323.648 205.843 C 323.802 205.596,324.106 205.393,324.324 205.393 C 324.541 205.393,324.904 205.209,325.130 204.983 C 325.355 204.757,325.709 204.507,325.916 204.428 C 326.123 204.349,326.292 204.129,326.292 203.940 C 326.292 203.722,326.499 203.596,326.854 203.596 C 327.163 203.596,327.618 203.393,327.865 203.146 C 328.112 202.899,328.416 202.697,328.539 202.697 C 328.663 202.697,328.764 202.494,328.764 202.247 C 328.764 201.922,328.914 201.798,329.306 201.798 C 329.805 201.798,334.284 198.271,335.317 197.065 C 335.522 196.825,335.756 196.629,335.838 196.629 C 336.157 196.629,338.395 194.529,338.499 194.131 C 338.676 193.453,338.919 193.603,340.802 195.555 C 341.782 196.571,344.564 199.428,346.984 201.904 C 353.525 208.596,355.835 211.007,355.910 211.222 C 356.056 211.641,345.283 221.167,342.697 222.907 C 338.433 225.775,333.753 228.441,331.017 229.560 C 329.599 230.140,328.334 230.754,328.208 230.924 C 328.081 231.095,326.511 231.790,324.719 232.470 C 322.927 233.149,321.208 233.846,320.899 234.018 C 319.237 234.943,314.043 236.179,307.639 237.173 L 301.008 238.202 291.110 238.202 C 281.545 238.202,281.108 238.183,278.078 237.641 C 276.354 237.333,274.605 237.080,274.192 237.080 C 273.778 237.079,271.922 236.617,270.068 236.054 C 268.213 235.490,266.380 234.989,265.994 234.940 C 263.643 234.643,249.468 228.345,248.124 227.001 C 247.880 226.756,247.049 226.219,246.278 225.806 C 245.507 225.394,244.689 224.879,244.461 224.663 C 244.232 224.447,243.843 224.270,243.596 224.270 C 243.348 224.270,243.146 224.178,243.146 224.066 C 243.146 223.954,242.716 223.610,242.191 223.301 C 241.302 222.778,240.965 222.526,239.588 221.348 C 239.299 221.101,238.869 220.899,238.633 220.899 C 238.352 220.899,238.202 220.742,238.202 220.449 C 238.202 220.150,238.052 220.000,237.753 220.000 C 237.499 220.000,237.303 219.850,237.303 219.656 C 237.303 219.467,237.153 219.254,236.970 219.184 C 236.787 219.113,236.205 218.662,235.678 218.180 C 235.151 217.698,234.542 217.303,234.326 217.303 C 234.110 217.303,233.933 217.152,233.933 216.966 C 233.933 216.779,233.733 216.629,233.483 216.629 C 233.229 216.629,233.034 216.479,233.034 216.285 C 233.034 216.096,232.857 215.876,232.640 215.796 C 232.424 215.716,232.197 215.578,232.135 215.490 C 231.187 214.131,229.967 213.034,229.404 213.034 C 228.914 213.034,228.764 212.928,228.764 212.584 C 228.764 212.335,228.614 212.135,228.427 212.135 C 228.242 212.135,228.090 211.983,228.090 211.798 C 228.090 211.610,227.890 211.461,227.640 211.461 C 227.341 211.461,227.191 211.311,227.191 211.011 C 227.191 210.721,227.041 210.562,226.768 210.562 C 226.534 210.562,226.292 210.361,226.227 210.112 C 226.162 209.865,225.948 209.663,225.751 209.663 C 225.554 209.663,225.393 209.545,225.393 209.401 C 225.393 209.129,223.388 207.212,223.090 207.199 C 222.997 207.194,222.921 206.888,222.921 206.519 C 222.921 206.090,222.759 205.745,222.472 205.566 C 222.225 205.411,222.022 205.155,222.022 204.995 C 222.022 204.836,221.875 204.648,221.694 204.579 C 221.513 204.510,221.304 204.260,221.229 204.024 C 221.155 203.788,220.948 203.596,220.771 203.596 C 220.594 203.596,220.449 203.467,220.449 203.309 C 220.449 203.152,219.793 202.217,218.990 201.231 C 218.187 200.245,217.530 199.352,217.529 199.246 C 217.529 199.140,217.225 198.670,216.854 198.202 C 216.483 197.734,216.180 197.244,216.180 197.114 C 216.180 196.983,216.051 196.795,215.894 196.697 C 215.737 196.598,215.484 196.264,215.331 195.955 C 215.178 195.646,214.826 195.032,214.549 194.591 C 214.272 194.149,213.846 193.467,213.603 193.074 C 213.360 192.681,213.082 192.360,212.985 192.360 C 212.888 192.360,212.809 192.212,212.809 192.031 C 212.809 191.851,212.613 191.520,212.373 191.297 C 211.802 190.765,207.235 181.081,206.944 179.786 C 206.820 179.235,206.585 178.477,206.421 178.100 C 205.473 175.925,203.146 169.467,203.146 169.013 C 203.146 168.718,202.945 168.061,202.698 167.553 C 201.817 165.735,200.516 159.860,200.230 156.404 C 199.570 148.446,200.212 129.506,201.221 127.155 C 201.309 126.950,201.662 125.006,202.006 122.836 C 202.350 120.665,202.743 118.754,202.881 118.588 C 203.277 118.111,206.067 110.745,206.067 110.177 C 206.067 109.894,206.148 109.663,206.247 109.663 C 206.475 109.663,206.966 108.321,206.966 107.699 C 206.966 107.440,207.049 107.195,207.150 107.154 C 207.251 107.112,207.718 106.017,208.188 104.719 C 208.986 102.514,210.286 99.581,210.578 99.326 C 210.699 99.220,213.238 94.574,213.935 93.183 C 214.110 92.832,214.460 92.321,214.711 92.046 C 215.557 91.122,217.079 88.808,217.079 88.447 C 217.079 88.251,217.179 88.090,217.302 88.090 C 217.425 88.090,218.121 87.190,218.849 86.091 C 222.062 81.238,229.724 72.872,233.790 69.777 C 235.166 68.729,237.568 66.868,239.128 65.641 C 241.840 63.506,250.633 57.804,251.573 57.569 C 251.820 57.508,254.551 56.375,257.640 55.053 C 264.868 51.960,269.420 50.571,276.067 49.427 L 281.011 48.576 292.809 48.657 C 299.298 48.702,305.669 48.826,306.966 48.933 " stroke="none" fill="#fbfbfb" fill-rule="evenodd"></path><path id="path2" d="M7.865 143.708 L 7.865 279.326 79.326 279.326 L 150.787 279.326 150.787 267.303 L 150.787 255.281 91.461 255.281 L 32.135 255.281 32.135 143.708 L 32.135 32.135 71.236 32.135 L 110.337 32.135 110.337 20.112 L 110.337 8.090 59.101 8.090 L 7.865 8.090 7.865 143.708 M173.483 11.011 C 173.483 11.261,173.633 11.461,173.820 11.461 C 174.007 11.461,174.157 11.261,174.157 11.011 C 174.157 10.762,174.007 10.562,173.820 10.562 C 173.633 10.562,173.483 10.762,173.483 11.011 M126.238 117.360 L 126.180 186.180 125.663 188.090 C 125.379 189.140,124.937 190.860,124.681 191.910 C 124.221 193.800,123.668 195.280,123.334 195.514 C 123.239 195.580,122.914 196.288,122.611 197.087 C 115.023 217.088,79.719 220.725,66.335 202.886 C 65.840 202.225,63.883 200.146,61.987 198.263 L 58.539 194.841 50.000 203.161 C 45.303 207.737,41.428 211.625,41.389 211.802 C 41.188 212.707,49.241 221.217,52.247 223.276 C 53.112 223.869,53.857 224.446,53.902 224.558 C 53.948 224.671,54.807 225.304,55.813 225.967 C 56.818 226.629,58.197 227.558,58.876 228.032 C 59.556 228.506,60.629 229.251,61.261 229.689 C 62.236 230.364,67.391 232.993,70.449 234.375 C 71.779 234.975,73.983 235.635,76.517 236.191 C 77.753 236.462,78.931 236.771,79.136 236.878 C 81.551 238.137,101.305 238.403,107.479 237.258 C 108.193 237.126,108.727 236.967,108.665 236.904 C 108.603 236.842,109.372 236.504,110.374 236.154 C 111.377 235.803,112.619 235.311,113.136 235.061 C 113.652 234.811,114.204 234.607,114.362 234.607 C 114.520 234.607,114.918 234.465,115.246 234.292 C 115.574 234.118,117.815 232.990,120.225 231.784 C 130.842 226.472,133.384 224.767,135.602 221.470 C 135.932 220.981,136.657 220.130,137.215 219.580 C 137.773 219.030,138.438 218.167,138.692 217.661 C 138.947 217.155,139.475 216.287,139.867 215.730 C 140.259 215.174,140.861 214.176,141.205 213.511 C 141.550 212.847,142.084 212.038,142.393 211.714 C 142.702 211.389,143.511 210.011,144.191 208.652 C 144.871 207.292,145.609 205.978,145.831 205.730 C 146.357 205.145,147.416 202.450,147.416 201.696 C 147.416 201.373,147.628 200.481,147.888 199.712 C 148.317 198.441,148.607 197.303,149.247 194.382 C 149.802 191.849,149.853 185.694,149.870 119.157 L 149.888 48.539 138.092 48.539 L 126.296 48.539 126.238 117.360 M276.067 49.427 C 269.380 50.577,264.867 51.959,257.572 55.089 C 254.445 56.430,251.765 57.530,251.617 57.532 C 251.469 57.534,249.216 58.874,246.609 60.509 C 234.161 68.321,224.898 77.064,217.767 87.731 C 216.389 89.793,215.085 91.656,214.870 91.871 C 213.608 93.134,208.982 102.488,207.294 107.191 C 205.129 113.223,203.199 118.204,202.877 118.593 C 202.741 118.756,202.350 120.665,202.006 122.836 C 201.662 125.006,201.309 126.950,201.221 127.155 C 200.212 129.506,199.570 148.446,200.230 156.404 C 200.516 159.860,201.817 165.735,202.698 167.553 C 202.945 168.061,203.146 168.714,203.146 169.004 C 203.146 169.295,204.006 171.780,205.056 174.527 C 206.107 177.274,206.967 179.705,206.967 179.929 C 206.968 180.457,211.833 190.828,212.218 191.124 C 212.462 191.311,216.051 196.801,217.640 199.418 C 217.888 199.824,219.177 201.479,220.506 203.095 C 222.146 205.090,222.921 206.213,222.921 206.593 C 222.921 206.901,223.014 207.187,223.128 207.228 C 223.482 207.357,231.236 214.195,231.236 214.379 C 231.236 214.881,241.704 222.993,244.606 224.740 C 246.333 225.779,247.931 226.813,248.157 227.037 C 249.489 228.358,263.685 234.648,265.994 234.940 C 266.380 234.989,268.213 235.490,270.068 236.054 C 271.922 236.617,273.778 237.079,274.192 237.080 C 274.605 237.080,276.354 237.333,278.078 237.641 C 281.108 238.183,281.545 238.202,291.110 238.202 L 301.008 238.202 307.639 237.173 C 314.043 236.179,319.237 234.943,320.899 234.018 C 321.208 233.846,322.927 233.149,324.719 232.470 C 326.511 231.790,328.081 231.095,328.208 230.924 C 328.334 230.754,329.599 230.140,331.017 229.560 C 333.753 228.441,338.433 225.775,342.697 222.907 C 345.283 221.167,356.056 211.641,355.910 211.222 C 355.835 211.007,353.525 208.596,346.984 201.904 C 344.564 199.428,341.782 196.571,340.802 195.555 C 338.915 193.600,338.676 193.453,338.497 194.138 C 338.158 195.435,324.083 206.292,322.740 206.292 C 322.514 206.292,320.262 207.267,317.737 208.458 C 314.496 209.988,312.929 210.613,312.407 210.586 C 312.000 210.564,310.774 210.904,309.682 211.341 C 308.066 211.987,307.402 212.135,306.110 212.135 C 305.238 212.135,304.239 212.244,303.891 212.378 C 301.995 213.106,299.640 213.258,290.337 213.253 L 281.011 213.247 278.090 212.346 C 276.483 211.851,274.612 211.294,273.933 211.109 C 273.253 210.924,271.938 210.537,271.011 210.249 C 270.084 209.961,267.663 209.239,265.630 208.647 C 262.394 207.702,261.570 207.359,259.001 205.880 C 257.388 204.952,255.423 203.830,254.636 203.388 C 253.848 202.946,252.958 202.357,252.658 202.079 C 252.357 201.801,252.063 201.573,252.004 201.573 C 251.535 201.573,247.640 198.614,247.640 198.258 C 247.640 198.153,247.184 197.779,246.626 197.426 C 245.319 196.600,244.104 195.272,243.188 193.669 C 242.787 192.968,242.133 192.108,241.735 191.757 C 240.743 190.883,239.414 189.238,237.862 186.966 C 237.145 185.916,236.436 184.955,236.287 184.831 C 236.138 184.708,235.603 183.844,235.097 182.912 C 234.591 181.979,233.914 180.918,233.592 180.552 C 233.271 180.187,232.859 179.610,232.678 179.270 C 232.496 178.930,232.249 178.652,232.129 178.652 C 232.009 178.652,231.910 178.486,231.910 178.284 C 231.910 178.083,231.510 177.133,231.022 176.174 C 230.533 175.215,229.918 173.791,229.655 173.011 C 229.392 172.230,228.972 171.303,228.721 170.951 C 228.470 170.599,228.120 169.735,227.943 169.032 C 227.766 168.328,227.424 167.247,227.183 166.629 C 226.722 165.443,225.958 162.002,225.613 159.551 C 225.500 158.747,225.301 157.736,225.171 157.303 C 224.345 154.558,223.320 141.203,223.832 139.858 C 223.949 139.549,224.050 138.671,224.056 137.907 C 224.063 137.142,224.169 135.809,224.293 134.944 C 224.502 133.482,224.869 130.149,225.023 128.311 C 225.312 124.861,231.282 110.209,232.952 108.852 C 233.120 108.714,233.258 108.436,233.258 108.232 C 233.258 107.158,235.767 103.526,239.401 99.341 C 241.486 96.939,243.238 94.853,243.295 94.704 C 243.498 94.175,250.559 87.331,251.172 87.069 C 251.516 86.922,253.813 85.514,256.276 83.939 C 263.029 79.623,268.506 77.316,276.180 75.554 L 281.685 74.290 291.910 74.283 C 298.923 74.278,302.594 74.360,303.596 74.545 C 304.399 74.693,305.966 74.970,307.079 75.160 C 308.191 75.351,309.421 75.652,309.811 75.830 C 310.202 76.008,311.305 76.315,312.262 76.513 C 313.219 76.710,314.821 77.208,315.821 77.619 C 316.822 78.030,318.045 78.490,318.539 78.642 C 319.700 78.998,324.280 81.111,324.719 81.493 C 325.151 81.868,325.427 82.096,332.808 88.172 C 340.124 94.195,339.435 93.962,342.065 91.292 C 350.165 83.068,355.955 76.770,355.955 76.182 C 355.955 75.405,349.099 68.897,344.649 65.450 C 340.203 62.006,326.668 54.571,322.699 53.392 C 322.112 53.218,321.340 52.925,320.984 52.741 C 320.170 52.321,317.221 51.336,316.180 51.136 C 315.747 51.053,314.635 50.747,313.708 50.457 C 308.362 48.779,308.166 48.763,292.809 48.657 L 281.011 48.576 276.067 49.427 " stroke="none" fill="#040404" fill-rule="evenodd"></path></g></svg>